<mxfile host="Electron" agent="Mozilla/5.0 (Windows NT 10.0; Win64; x64) AppleWebKit/537.36 (KHTML, like Gecko) draw.io/26.0.9 Chrome/128.0.6613.186 Electron/32.2.5 Safari/537.36" version="26.0.9">
  <diagram name="Page-1" id="2YBvvXClWsGukQMizWep">
    <mxGraphModel dx="1608" dy="820" grid="1" gridSize="10" guides="1" tooltips="1" connect="1" arrows="1" fold="1" page="1" pageScale="1" pageWidth="850" pageHeight="1100" math="0" shadow="0">
      <root>
        <mxCell id="0" />
        <mxCell id="1" parent="0" />
        <mxCell id="aM9ryv3xv72pqoxQDRHE-1" value=":Application" style="shape=umlLifeline;perimeter=lifelinePerimeter;whiteSpace=wrap;html=1;container=0;dropTarget=0;collapsible=0;recursiveResize=0;outlineConnect=0;portConstraint=eastwest;newEdgeStyle={&quot;edgeStyle&quot;:&quot;elbowEdgeStyle&quot;,&quot;elbow&quot;:&quot;vertical&quot;,&quot;curved&quot;:0,&quot;rounded&quot;:0};" parent="1" vertex="1">
          <mxGeometry x="310" y="40" width="100" height="520" as="geometry" />
        </mxCell>
        <mxCell id="aM9ryv3xv72pqoxQDRHE-5" value=":Base de données relationnelle" style="shape=umlLifeline;perimeter=lifelinePerimeter;whiteSpace=wrap;html=1;container=0;dropTarget=0;collapsible=0;recursiveResize=0;outlineConnect=0;portConstraint=eastwest;newEdgeStyle={&quot;edgeStyle&quot;:&quot;elbowEdgeStyle&quot;,&quot;elbow&quot;:&quot;vertical&quot;,&quot;curved&quot;:0,&quot;rounded&quot;:0};" parent="1" vertex="1">
          <mxGeometry x="590" y="40" width="100" height="520" as="geometry" />
        </mxCell>
        <mxCell id="aM9ryv3xv72pqoxQDRHE-6" value="" style="html=1;points=[];perimeter=orthogonalPerimeter;outlineConnect=0;targetShapes=umlLifeline;portConstraint=eastwest;newEdgeStyle={&quot;edgeStyle&quot;:&quot;elbowEdgeStyle&quot;,&quot;elbow&quot;:&quot;vertical&quot;,&quot;curved&quot;:0,&quot;rounded&quot;:0};" parent="aM9ryv3xv72pqoxQDRHE-5" vertex="1">
          <mxGeometry x="45" y="80" width="10" height="60" as="geometry" />
        </mxCell>
        <mxCell id="RJLVJxDMmFZqVFZCEAZF-26" value="" style="html=1;points=[];perimeter=orthogonalPerimeter;outlineConnect=0;targetShapes=umlLifeline;portConstraint=eastwest;newEdgeStyle={&quot;edgeStyle&quot;:&quot;elbowEdgeStyle&quot;,&quot;elbow&quot;:&quot;vertical&quot;,&quot;curved&quot;:0,&quot;rounded&quot;:0};" vertex="1" parent="aM9ryv3xv72pqoxQDRHE-5">
          <mxGeometry x="45" y="290" width="10" height="60" as="geometry" />
        </mxCell>
        <mxCell id="aM9ryv3xv72pqoxQDRHE-9" value="" style="html=1;verticalAlign=bottom;endArrow=block;edgeStyle=elbowEdgeStyle;elbow=vertical;curved=0;rounded=0;" parent="1" target="aM9ryv3xv72pqoxQDRHE-2" edge="1">
          <mxGeometry x="0.003" relative="1" as="geometry">
            <mxPoint x="260" y="120" as="sourcePoint" />
            <Array as="points">
              <mxPoint x="90" y="120" />
            </Array>
            <mxPoint x="350" y="120" as="targetPoint" />
            <mxPoint as="offset" />
          </mxGeometry>
        </mxCell>
        <mxCell id="RJLVJxDMmFZqVFZCEAZF-1" value="Utilisateur&lt;div&gt;&lt;br&gt;&lt;/div&gt;" style="shape=umlActor;verticalLabelPosition=bottom;verticalAlign=top;html=1;outlineConnect=0;" vertex="1" parent="1">
          <mxGeometry x="70" y="30" width="30" height="50" as="geometry" />
        </mxCell>
        <mxCell id="RJLVJxDMmFZqVFZCEAZF-2" value="" style="html=1;points=[];perimeter=orthogonalPerimeter;outlineConnect=0;targetShapes=umlLifeline;portConstraint=eastwest;newEdgeStyle={&quot;edgeStyle&quot;:&quot;elbowEdgeStyle&quot;,&quot;elbow&quot;:&quot;vertical&quot;,&quot;curved&quot;:0,&quot;rounded&quot;:0};" vertex="1" parent="1">
          <mxGeometry x="80" y="100" width="10" height="460" as="geometry" />
        </mxCell>
        <mxCell id="RJLVJxDMmFZqVFZCEAZF-3" value="" style="html=1;verticalAlign=bottom;endArrow=block;edgeStyle=elbowEdgeStyle;elbow=vertical;curved=0;rounded=0;" edge="1" parent="1" source="aM9ryv3xv72pqoxQDRHE-6" target="aM9ryv3xv72pqoxQDRHE-2">
          <mxGeometry relative="1" as="geometry">
            <mxPoint x="635" y="160" as="sourcePoint" />
            <Array as="points">
              <mxPoint x="580" y="170" />
            </Array>
            <mxPoint x="360" y="160" as="targetPoint" />
          </mxGeometry>
        </mxCell>
        <mxCell id="RJLVJxDMmFZqVFZCEAZF-12" value="Résultat de la vérification" style="edgeLabel;html=1;align=center;verticalAlign=middle;resizable=0;points=[];" vertex="1" connectable="0" parent="RJLVJxDMmFZqVFZCEAZF-3">
          <mxGeometry x="0.1852" y="-2" relative="1" as="geometry">
            <mxPoint x="15" y="-8" as="offset" />
          </mxGeometry>
        </mxCell>
        <mxCell id="aM9ryv3xv72pqoxQDRHE-2" value="" style="html=1;points=[];perimeter=orthogonalPerimeter;outlineConnect=0;targetShapes=umlLifeline;portConstraint=eastwest;newEdgeStyle={&quot;edgeStyle&quot;:&quot;elbowEdgeStyle&quot;,&quot;elbow&quot;:&quot;vertical&quot;,&quot;curved&quot;:0,&quot;rounded&quot;:0};" parent="1" vertex="1">
          <mxGeometry x="355" y="110" width="10" height="430" as="geometry" />
        </mxCell>
        <mxCell id="RJLVJxDMmFZqVFZCEAZF-6" value="Entre identifiants de connexion" style="text;html=1;align=center;verticalAlign=middle;resizable=0;points=[];autosize=1;strokeColor=none;fillColor=none;" vertex="1" parent="1">
          <mxGeometry x="120" y="100" width="190" height="30" as="geometry" />
        </mxCell>
        <mxCell id="RJLVJxDMmFZqVFZCEAZF-9" value="" style="html=1;verticalAlign=bottom;endArrow=block;edgeStyle=elbowEdgeStyle;elbow=vertical;curved=0;rounded=0;" edge="1" parent="1">
          <mxGeometry x="0.003" relative="1" as="geometry">
            <mxPoint x="535" y="140" as="sourcePoint" />
            <Array as="points">
              <mxPoint x="365" y="140" />
            </Array>
            <mxPoint x="635" y="140" as="targetPoint" />
            <mxPoint as="offset" />
          </mxGeometry>
        </mxCell>
        <mxCell id="RJLVJxDMmFZqVFZCEAZF-10" value="Vérifie si les identifiants existent" style="text;html=1;align=center;verticalAlign=middle;resizable=0;points=[];autosize=1;strokeColor=none;fillColor=none;" vertex="1" parent="1">
          <mxGeometry x="395" y="118" width="190" height="30" as="geometry" />
        </mxCell>
        <mxCell id="RJLVJxDMmFZqVFZCEAZF-13" value="" style="shape=folder;fontStyle=1;spacingTop=10;tabWidth=40;tabHeight=20;tabPosition=left;html=1;whiteSpace=wrap;gradientColor=none;fillColor=none;" vertex="1" parent="1">
          <mxGeometry x="-100" y="160" width="510" height="120" as="geometry" />
        </mxCell>
        <mxCell id="RJLVJxDMmFZqVFZCEAZF-14" value="Alt" style="text;html=1;align=center;verticalAlign=middle;resizable=0;points=[];autosize=1;strokeColor=none;fillColor=none;" vertex="1" parent="1">
          <mxGeometry x="-100" y="160" width="40" height="30" as="geometry" />
        </mxCell>
        <mxCell id="RJLVJxDMmFZqVFZCEAZF-15" value="" style="html=1;verticalAlign=bottom;endArrow=block;edgeStyle=elbowEdgeStyle;elbow=vertical;curved=0;rounded=0;" edge="1" parent="1">
          <mxGeometry relative="1" as="geometry">
            <mxPoint x="355" y="200" as="sourcePoint" />
            <Array as="points">
              <mxPoint x="300" y="200" />
            </Array>
            <mxPoint x="90" y="200" as="targetPoint" />
          </mxGeometry>
        </mxCell>
        <mxCell id="RJLVJxDMmFZqVFZCEAZF-16" value="Connexion réussie" style="edgeLabel;html=1;align=center;verticalAlign=middle;resizable=0;points=[];" vertex="1" connectable="0" parent="RJLVJxDMmFZqVFZCEAZF-15">
          <mxGeometry x="0.1852" y="-2" relative="1" as="geometry">
            <mxPoint x="15" y="-8" as="offset" />
          </mxGeometry>
        </mxCell>
        <mxCell id="RJLVJxDMmFZqVFZCEAZF-17" value="" style="html=1;verticalAlign=bottom;endArrow=block;edgeStyle=elbowEdgeStyle;elbow=vertical;curved=0;rounded=0;" edge="1" parent="1">
          <mxGeometry relative="1" as="geometry">
            <mxPoint x="355" y="250" as="sourcePoint" />
            <Array as="points">
              <mxPoint x="300" y="250" />
            </Array>
            <mxPoint x="90" y="250" as="targetPoint" />
          </mxGeometry>
        </mxCell>
        <mxCell id="RJLVJxDMmFZqVFZCEAZF-18" value="Erreur" style="edgeLabel;html=1;align=center;verticalAlign=middle;resizable=0;points=[];" vertex="1" connectable="0" parent="RJLVJxDMmFZqVFZCEAZF-17">
          <mxGeometry x="0.1852" y="-2" relative="1" as="geometry">
            <mxPoint x="15" y="-8" as="offset" />
          </mxGeometry>
        </mxCell>
        <mxCell id="RJLVJxDMmFZqVFZCEAZF-19" value="" style="html=1;verticalAlign=bottom;endArrow=none;edgeStyle=elbowEdgeStyle;elbow=vertical;curved=0;rounded=0;entryX=0;entryY=0;entryDx=0;entryDy=70;entryPerimeter=0;exitX=0;exitY=0;exitDx=380;exitDy=70;exitPerimeter=0;dashed=1;startFill=0;" edge="1" parent="1" source="RJLVJxDMmFZqVFZCEAZF-13" target="RJLVJxDMmFZqVFZCEAZF-13">
          <mxGeometry relative="1" as="geometry">
            <mxPoint x="355" y="230" as="sourcePoint" />
            <Array as="points">
              <mxPoint x="300" y="230" />
            </Array>
            <mxPoint x="85" y="230" as="targetPoint" />
          </mxGeometry>
        </mxCell>
        <mxCell id="RJLVJxDMmFZqVFZCEAZF-24" value="" style="html=1;verticalAlign=bottom;endArrow=block;edgeStyle=elbowEdgeStyle;elbow=vertical;curved=0;rounded=0;" edge="1" parent="1" target="aM9ryv3xv72pqoxQDRHE-2">
          <mxGeometry x="0.003" relative="1" as="geometry">
            <mxPoint x="260" y="330" as="sourcePoint" />
            <Array as="points">
              <mxPoint x="90" y="330" />
            </Array>
            <mxPoint x="350" y="330" as="targetPoint" />
            <mxPoint as="offset" />
          </mxGeometry>
        </mxCell>
        <mxCell id="RJLVJxDMmFZqVFZCEAZF-25" value="" style="html=1;verticalAlign=bottom;endArrow=block;edgeStyle=elbowEdgeStyle;elbow=vertical;curved=0;rounded=0;" edge="1" parent="1" source="RJLVJxDMmFZqVFZCEAZF-37">
          <mxGeometry x="0.003" relative="1" as="geometry">
            <mxPoint x="535" y="350" as="sourcePoint" />
            <Array as="points">
              <mxPoint x="365" y="350" />
            </Array>
            <mxPoint x="635" y="350" as="targetPoint" />
            <mxPoint as="offset" />
          </mxGeometry>
        </mxCell>
        <mxCell id="RJLVJxDMmFZqVFZCEAZF-27" value="" style="html=1;verticalAlign=bottom;endArrow=block;edgeStyle=elbowEdgeStyle;elbow=vertical;curved=0;rounded=0;" edge="1" parent="1">
          <mxGeometry relative="1" as="geometry">
            <mxPoint x="635" y="380" as="sourcePoint" />
            <Array as="points">
              <mxPoint x="580" y="380" />
            </Array>
            <mxPoint x="365" y="380" as="targetPoint" />
          </mxGeometry>
        </mxCell>
        <mxCell id="RJLVJxDMmFZqVFZCEAZF-29" value="" style="shape=folder;fontStyle=1;spacingTop=10;tabWidth=40;tabHeight=20;tabPosition=left;html=1;whiteSpace=wrap;gradientColor=none;fillColor=none;" vertex="1" parent="1">
          <mxGeometry x="-100" y="400" width="500" height="120" as="geometry" />
        </mxCell>
        <mxCell id="RJLVJxDMmFZqVFZCEAZF-30" value="Alt" style="text;html=1;align=center;verticalAlign=middle;resizable=0;points=[];autosize=1;strokeColor=none;fillColor=none;" vertex="1" parent="1">
          <mxGeometry x="-100" y="400" width="40" height="30" as="geometry" />
        </mxCell>
        <mxCell id="RJLVJxDMmFZqVFZCEAZF-31" value="" style="html=1;verticalAlign=bottom;endArrow=block;edgeStyle=elbowEdgeStyle;elbow=vertical;curved=0;rounded=0;" edge="1" parent="1">
          <mxGeometry relative="1" as="geometry">
            <mxPoint x="355" y="440" as="sourcePoint" />
            <Array as="points">
              <mxPoint x="300" y="440" />
            </Array>
            <mxPoint x="90" y="440" as="targetPoint" />
          </mxGeometry>
        </mxCell>
        <mxCell id="RJLVJxDMmFZqVFZCEAZF-32" value="Inscritpion et connexion réussie" style="edgeLabel;html=1;align=center;verticalAlign=middle;resizable=0;points=[];" vertex="1" connectable="0" parent="RJLVJxDMmFZqVFZCEAZF-31">
          <mxGeometry x="0.1852" y="-2" relative="1" as="geometry">
            <mxPoint x="15" y="-8" as="offset" />
          </mxGeometry>
        </mxCell>
        <mxCell id="RJLVJxDMmFZqVFZCEAZF-33" value="" style="html=1;verticalAlign=bottom;endArrow=none;edgeStyle=elbowEdgeStyle;elbow=vertical;curved=0;rounded=0;exitX=0;exitY=0;exitDx=380;exitDy=70;exitPerimeter=0;dashed=1;startFill=0;entryX=0;entryY=0;entryDx=0;entryDy=70;entryPerimeter=0;" edge="1" parent="1" target="RJLVJxDMmFZqVFZCEAZF-29">
          <mxGeometry relative="1" as="geometry">
            <mxPoint x="400" y="470" as="sourcePoint" />
            <Array as="points">
              <mxPoint x="290" y="470" />
            </Array>
            <mxPoint x="10" y="470" as="targetPoint" />
          </mxGeometry>
        </mxCell>
        <mxCell id="RJLVJxDMmFZqVFZCEAZF-34" value="" style="html=1;verticalAlign=bottom;endArrow=block;edgeStyle=elbowEdgeStyle;elbow=vertical;curved=0;rounded=0;" edge="1" parent="1">
          <mxGeometry relative="1" as="geometry">
            <mxPoint x="355" y="490" as="sourcePoint" />
            <Array as="points">
              <mxPoint x="300" y="490" />
            </Array>
            <mxPoint x="90" y="490" as="targetPoint" />
          </mxGeometry>
        </mxCell>
        <mxCell id="RJLVJxDMmFZqVFZCEAZF-36" value="Rempli formulaire inscritpion" style="text;html=1;align=center;verticalAlign=middle;resizable=0;points=[];autosize=1;strokeColor=none;fillColor=none;" vertex="1" parent="1">
          <mxGeometry x="120" y="310" width="170" height="30" as="geometry" />
        </mxCell>
        <mxCell id="RJLVJxDMmFZqVFZCEAZF-38" value="" style="html=1;verticalAlign=bottom;endArrow=block;edgeStyle=elbowEdgeStyle;elbow=vertical;curved=0;rounded=0;" edge="1" parent="1" target="RJLVJxDMmFZqVFZCEAZF-37">
          <mxGeometry x="0.003" relative="1" as="geometry">
            <mxPoint x="535" y="350" as="sourcePoint" />
            <Array as="points" />
            <mxPoint x="635" y="350" as="targetPoint" />
            <mxPoint as="offset" />
          </mxGeometry>
        </mxCell>
        <mxCell id="RJLVJxDMmFZqVFZCEAZF-37" value="Enregistre informations utilisateur" style="text;html=1;align=center;verticalAlign=middle;resizable=0;points=[];autosize=1;strokeColor=none;fillColor=none;" vertex="1" parent="1">
          <mxGeometry x="395" y="330" width="200" height="30" as="geometry" />
        </mxCell>
        <mxCell id="RJLVJxDMmFZqVFZCEAZF-39" value="Retour de l&#39;enregistrement" style="text;html=1;align=center;verticalAlign=middle;resizable=0;points=[];autosize=1;strokeColor=none;fillColor=none;" vertex="1" parent="1">
          <mxGeometry x="415" y="360" width="160" height="30" as="geometry" />
        </mxCell>
        <mxCell id="RJLVJxDMmFZqVFZCEAZF-40" value="Erreur&amp;nbsp;" style="edgeLabel;html=1;align=center;verticalAlign=middle;resizable=0;points=[];" vertex="1" connectable="0" parent="1">
          <mxGeometry x="205" y="480" as="geometry" />
        </mxCell>
        <mxCell id="RJLVJxDMmFZqVFZCEAZF-41" value="Si identifiants corrects" style="text;html=1;align=center;verticalAlign=middle;resizable=0;points=[];autosize=1;strokeColor=none;fillColor=none;" vertex="1" parent="1">
          <mxGeometry x="-95" y="190" width="140" height="30" as="geometry" />
        </mxCell>
        <mxCell id="RJLVJxDMmFZqVFZCEAZF-42" value="Si identifiants incorrects" style="text;html=1;align=center;verticalAlign=middle;resizable=0;points=[];autosize=1;strokeColor=none;fillColor=none;" vertex="1" parent="1">
          <mxGeometry x="-100" y="240" width="150" height="30" as="geometry" />
        </mxCell>
        <mxCell id="RJLVJxDMmFZqVFZCEAZF-43" value="Enregistrement réussi" style="text;html=1;align=center;verticalAlign=middle;resizable=0;points=[];autosize=1;strokeColor=none;fillColor=none;" vertex="1" parent="1">
          <mxGeometry x="-100" y="430" width="140" height="30" as="geometry" />
        </mxCell>
        <mxCell id="RJLVJxDMmFZqVFZCEAZF-44" value="Echec enregistrement:&lt;div&gt;- informations rentrés incorrects&lt;/div&gt;" style="text;html=1;align=left;verticalAlign=middle;resizable=0;points=[];autosize=1;strokeColor=none;fillColor=none;" vertex="1" parent="1">
          <mxGeometry x="-100" y="475" width="190" height="40" as="geometry" />
        </mxCell>
      </root>
    </mxGraphModel>
  </diagram>
</mxfile>
